<?xml version="1.0" encoding="UTF-8"?>
<svg id="_图层_2" data-name="图层 2" xmlns="http://www.w3.org/2000/svg" viewBox="0 0 383.86 554.86">
  <defs>
    <style>
      .cls-1 {
        fill: #ebcb47;
      }

      .cls-2 {
        fill: #eeca34;
      }

      .cls-3 {
        fill: #040000;
      }

      .cls-4 {
        fill: #f0eee8;
      }

      .cls-5 {
        fill: #090606;
      }

      .cls-6 {
        fill: #c3a62b;
      }

      .cls-7 {
        fill: #e9c737;
      }

      .cls-8 {
        fill: #fcf9eb;
      }

      .cls-9 {
        fill: #fbfaf9;
      }

      .cls-10 {
        fill: #fbf8eb;
      }

      .cls-11 {
        fill: #0b0707;
      }

      .cls-12 {
        fill: #e9e9e9;
      }

      .cls-13 {
        fill: #fefefe;
      }

      .cls-14 {
        fill: #efcc3d;
      }

      .cls-15 {
        fill: #edece9;
      }

      .cls-16 {
        fill: #e9c734;
      }

      .cls-17 {
        fill: #ddbc32;
      }

      .cls-18 {
        fill: #fdfdfd;
      }
    </style>
  </defs>
  <g id="_女孩" data-name="女孩">
    <g id="_女孩-2" data-name="女孩">
      <g>
        <path class="cls-3" d="M68.13,389.7c-32.69-2.73-55.75-24.93-52.28-59,1.36-13.29,12.95-21.37,13.62-25.01.91-4.88-9.57-7.95-8.24-15.88.33-1.94,6.05-2.83,8.43-5.55,38.8-44.35,26.5-99.14,36.57-155.48C81.86,41.49,136.92-5.4,228.77.5c140.46,9.01,160.51,124.04,146.63,239.44-1.61,13.42-10.98,42.57-10.32,52.57.38,5.68,10.49,19.94,12.2,28.47,6.38,31.81-12.62,35.08-12.77,56.37-.3,41.1,16.91,87.61,19.32,126.52,1.04,16.82-33.53,28.85-47.84,33.89-60.66,21.35-116.07,20.22-177.82,4.64-9.13-2.31-43.51-15.76-47.62-15.54-9.75.54-14.87,23.75-27.91,26.7-21.7,4.91-66-4.35-78.94-24.27-14.57-22.44,17.94-18.51,24.62-24.46,4.61-4.11,27.25-55.19,32.88-65.87,2.11-4,11.95-16.72,11.94-17.79-.02-2.83-12.29-10.1-12.98-14.07-.82-4.71,9.66-11.03,7.96-17.41Z"/>
        <path class="cls-13" d="M213.67,107.35c5.56,16.98,18.94,34.07,30.33,47.88,5.52,6.69,23.59,20.96,25.96,26.17,7.68,16.89-2.87,88.37-17.79,102.75l-50.41,23.18c-51.01-9.37-91.17-27.55-86.9-86.2.59-8.07,7.11-42.67,11.63-47.33,3.08-3.18,28.15-16.24,36.31-22.69,13.91-11,30.99-32.12,43.99-41.07,2.32-1.6,2.71-3.82,6.87-2.7Z"/>
        <path class="cls-13" d="M106.58,504.81c18.21,1.29,30.84-28.12,38.06-42.89,3.19-6.52,5.7-20.27,8.32-24.02,2.91-4.16,29.01-.33,36.03-1.64-1.94,14.25,6.28,64.59,18.6,71.22,20.24,10.9,63.5-3.08,80.29-17.73,26.36-23,.06-27.23-8.25-50.68,29.14-12.99,50.86-36.8,74.12-57.61l18.75,125.31c.65,3.35-1.54,4.43-3.86,5.96-5.8,3.83-29.51,12.27-37.42,14.78-59.71,18.94-120.1,16.99-180.05-.06-4.3-1.22-53.06-14.89-44.59-22.64Z"/>
        <path class="cls-13" d="M252.15,318.39l8.4,66.74c-2.35,9.8-102.53,8.13-116.86,7.26-24.89-1.52-87.37-9.26-104.53-27.25-21.25-22.28-9.02-50.88,14.24-65.57,4.07-2.57,11.57-2.66,11.99-3.11,1.18-1.26-6.64-21.23.35-33.88,12.44-22.52,20.5,15.65,24.71,23.98,28.27,55.86,110.64,36.11,161.71,31.84Z"/>
        <path class="cls-13" d="M285.12,422.57l-2.62-3.79c8.52-42.62-1.33-84.33-19.35-122.3,11.96-4.27,57.22-24.79,63.9-24.12,29.54,2.97,50.04,57.54,36.22,81.55-14.51,25.22-53.8,53.02-78.15,68.65Z"/>
        <path class="cls-18" d="M92.83,428.07c2.26,2.9-23.43,34.93-24.06,42.51.25,2.95,25.6,19.35,28.29,26.05,1.7,4.22-1.94,9.09-1.1,14.38.53,3.37,5.84,9.14,5.09,10.12-.22.29-4.35.39-6.56,3.01-6.68,7.92-10.52,17.72-22.14,19.21-14.25,1.83-42.02-6.87-53.51-15.41-15.81-11.76,14.69-9.6,18.45-12.78l43.21-87.19c.96-4.04,11.83-.5,12.32.12Z"/>
        <path class="cls-2" d="M282.37,463.68c-19.21,19.17-45.21,25.1-71.41,27.41-13.71-18.01-8.69-44.7-16.48-65.76,9.04.3,10.03,11.47,16.37,17.89,9.17,9.29,21.11,13.97,34.26,12.07,24.13-3.49,21.6-23.59,37.26,8.39Z"/>
        <path class="cls-2" d="M90.1,458.2c8.97-18.91,34.14-57.56,57.67-54.81-2.42,29.82-10.84,56.44-30.2,79.47-7.48-8.9-16.58-15.99-27.31-21.25l-.16-3.42Z"/>
        <path class="cls-18" d="M260.4,400.67c-5.38,16.95-2.6,49.08-28.25,43.27-10.31-2.34-27.91-23.16-29.45-33.72-.81-5.53.4-3.62,4.08-4.1,17.54-2.29,36.05-2.58,53.62-5.44Z"/>
        <path class="cls-9" d="M257.65,299.22c10.84,1.49,17.63,24.99,20.61,36.25,7.55,28.51,13.07,66.6-1.38,92.58-4.29,2.62-7.5,9.11-13.73,8.2,12.89-34.02,7.87-82.12-2.34-116.87-2.53-8.62-6.73-12.91-8.63-20.14,1.68-.41,4.35.49,5.48-.01Z"/>
        <path class="cls-14" d="M263.14,296.48c25.01,35.11,29.33,84.33,21.97,126.09-2.69,1.73-4.78,3.37-8.24,5.48,11.02-38.1,5.29-76.65-8.91-113.08-2.25-5.77-4.34-12.72-10.32-15.75,1.75-.78,3.16-1.91,5.49-2.74Z"/>
        <path class="cls-16" d="M282.37,463.68c1.63,3.32,8.12,6.92,5.08,13.28-17.44,14.26-38.47,22.65-61.43,22.62-10.58-.01-8-2.67-12.32-5.74l2.75-3.81c24.39-.77,48.28-9.75,65.91-26.34Z"/>
        <path class="cls-17" d="M186.25,406.11c2.29,18.85-2.84,21.4-20.75,19.33-15.86-1.83-5.17-10.44-6.72-22.07l27.47,2.74Z"/>
        <path class="cls-8" d="M282.37,463.68c5.79,5.67-26.24,21.8-30.27,23.25-12.34,4.45-25.35,6.3-38.4,6.9-.89-.63-2.07-1.86-2.75-2.74-1.53-8.7,4.38-4.87,9.57-5.4,9.92-1.02,16.15-1.05,26.06-4.27,5.8-1.88,34.36-19.14,35.78-17.74Z"/>
        <path class="cls-7" d="M117.57,482.87c-.93,1.1-.32,7-4.22,8.22-4.83,1.02-25.28-17.75-27.53-22.12-2.33-4.53,1.27-4.48,1.54-5.29,1.04-1.31,2.02-2.3,2.84-2.17,5.56.85,23.62,15.51,27.37,21.36Z"/>
        <path class="cls-15" d="M84.61,395.16c11.51,1.31,23.72,6.11,35.71,5.51-2.63,6.18-9.06,9.61-13.73,13.68-6.5-1.5-23.38-11.92-21.97-19.19Z"/>
        <path class="cls-1" d="M84.61,395.16l21.97,19.19c-.96.84-1.74,1.93-2.75,2.74-10.61-1.12-20.68-6.61-30.21-16.45,1.1-8.54,7.13-5.92,10.99-5.48Z"/>
        <path class="cls-4" d="M103.84,417.09c-2.68,2.16-.13,6.08-7.33,3.45-6.02-2.2-23.84-12.52-22.89-19.9,11.66,2.05,20.47,10.53,30.21,16.45Z"/>
        <path class="cls-10" d="M117.57,482.87l-30.21-19.19c.81-2.38,1.88-3.66,2.75-5.48,5.49.05,31.93,20.16,27.47,24.67Z"/>
        <path class="cls-6" d="M169.74,310.22c.29,4.66-12.18,3.09-14.84,2.75-3.29-.42-1.18-5.48-1.59-8.26l16.43,5.52Z"/>
        <rect class="cls-12" x="227.45" y="304.72" width="13.71" height="5.45"/>
        <path class="cls-11" d="M243.05,178.89c25.78-6.6,3.06,81.45-11.49,51.78-3.4-6.93.7-49.02,11.49-51.78Z"/>
        <path class="cls-5" d="M163.15,173.3c18.47-5.5,14.04,49.35-.26,49.33-15.6-.01-10.13-46.24.26-49.33Z"/>
      </g>
      <path class="cls-3" d="M164.49,245.22s13.97,10.26,36.29,10.26c5.77,0,12.1-.69,18.9-2.41-2.11,7.94-15.27,21.68-28.86,21.68-9.92,0-20.07-7.31-26.33-29.53M164.49,240.23c-1,0-2,.3-2.86.9-1.74,1.22-2.53,3.4-1.96,5.45,7.73,27.42,21.2,33.17,31.14,33.17,15.64,0,30.98-15.17,33.69-25.4.45-1.71-.03-3.54-1.28-4.8-.95-.96-2.24-1.48-3.55-1.48-.41,0-.82.05-1.23.15-5.9,1.5-11.84,2.26-17.67,2.26-20.25,0-33.22-9.21-33.35-9.3-.88-.63-1.91-.95-2.94-.95h0Z"/>
    </g>
  </g>
</svg>