<?xml version="1.0" encoding="UTF-8"?>
<svg id="_图层_2" data-name="图层 2" xmlns="http://www.w3.org/2000/svg" viewBox="0 0 277.01 377.99">
  <defs>
    <style>
      .cls-1 {
        fill: #050101;
      }

      .cls-2 {
        fill: #080403;
      }

      .cls-3 {
        fill: #f0cf47;
      }

      .cls-4 {
        fill: #f5f5f6;
      }

      .cls-5 {
        fill: #0c0909;
      }

      .cls-6 {
        fill: #0a0707;
      }

      .cls-7 {
        fill: #f2d561;
      }

      .cls-8 {
        fill: #f2d560;
      }

      .cls-9 {
        fill: #fefefe;
      }

      .cls-10 {
        fill: #131010;
      }

      .cls-11 {
        fill: #f2d45d;
      }

      .cls-12 {
        fill: #ebc834;
      }
    </style>
  </defs>
  <g id="_左人物" data-name="左人物">
    <g id="_左人物-2" data-name="左人物">
      <path class="cls-1" d="M103.87,178.18c-.47-.81-12.59-7.31-15.69-10.43-56.1-56.45-1.19-143.65,64.4-162.63,98.55-28.52,155.79,68.12,87.85,142.49-4.22,4.62-15.38,8.34-14.78,14.45,15.45,40.6,29.16,82.53,39.99,124.65,3.38,13.17,16.48,52.5,9.21,62.46-1.49,2.03-15.96,11.91-19.25,13.66-45.82,24.44-117.28,18.08-160.39-10.2-8.24-5.41-21.92-14.53-18.05-25.2,1.97-18.27,30.55-142.71,26.72-149.26Z"/>
      <path class="cls-2" d="M46.67,4.95c1.09,1.11,3.53,22.11,6.91,30.13,4.28,10.16,12.07,17.24,15.06,27.43-12.83-.88-24.21,2.94-31.31,13.97-3.15,4.89-6.8,25.84-15.33,18.93-1.12-.91-4.1-22.35-6.13-28.17-3.93-11.25-9.2-17.19-15.87-25.24,6.92-5.99,16.01-6.34,23.37-12.34,8.55-6.98,9.95-16.76,14.87-22.99,1.87-2.36,7.65-2.52,8.43-1.73Z"/>
      <path class="cls-9" d="M166.82,11.11c80.7-12.54,119.1,55.08,74.94,121.39-5.79,8.7-24.55,24.54-24.11,32.35l51.24,178.22c-53.19,38.21-129.93,27.94-180.13-10.36,12.12-50.57,18.72-102.31,26.82-153.69-.9-11.14-17.73-17.57-24.96-27.4C51.48,98.3,109.2,20.06,166.82,11.11Z"/>
      <path class="cls-12" d="M52.17,54.27c-1.64,2.21-23.55,5.75-23.33,16.47-1.39-.67-11.86-22.03-11.75-23.33.14-1.67,21.54-17.85,24.06-23.25-1.15,6.12,12.86,27.62,11.02,30.11Z"/>
      <path class="cls-5" d="M159.3,95.44c-4.79,11.37-5.04,50.13-17.94,52.19-22.8,3.65-16.06-40.78-28.76-48.08,16.52-12.1,28.39-8.75,46.69-4.11Z"/>
      <path class="cls-6" d="M181.26,76.26c-4.22,4.09,1.69,4.85,3.47,6.24,6.39,4.99,17.8,7.16,15.74,18.39-1.52,1.56-36.01-13.24-38.39-15.11-16.32-12.82,44.12-34.29,46.62-21.84,1.7,8.41-25.25,10.18-27.46,12.32Z"/>
      <path class="cls-10" d="M96.13,84.49l13.72-2.8-8.22-16.41c2.74-2.53,29.48,9.79,19.22,20.55-4.65,4.88-28.53,16.69-24.72-1.34Z"/>
      <path class="cls-3" d="M200.49,117.35c.15-2.4-.71-13.59,5.44-8.2,1.23,1.08,9.41,18.21,8.26,21.91-5.6-3.38-8.7-8.93-13.71-13.7Z"/>
      <path class="cls-8" d="M186.76,114.61c1.58-13.37,7.84-2.87,13.73,2.74-.11,1.81.1,3.66-.01,5.46-2.52,1.93-10.63-5.67-13.72-8.2Z"/>
      <path class="cls-3" d="M96.12,109.13c-.53-4.58,1.57-9.02,5.44-5.46.77.71,8.24,16.15,8.26,19.17-5.98-3.3-8.18-9.01-13.71-13.7Z"/>
      <path class="cls-11" d="M186.76,114.61c-1.75,14.79-14.16-4.33-10.97-8.21,6.54-1.17,5.95,4.09,10.97,8.21Z"/>
      <path class="cls-7" d="M96.12,109.13c.46,4,5.84,9.45-1.33,8.2l-6.88-13.68c.48-.53,6.87,4.34,8.21,5.48Z"/>
      <path class="cls-4" d="M148.33,100.92c-2.18,5.54-4.47,35.59-9.63,35.56-10.56-15.33-19.9-45.4,9.63-35.56Z"/>
    </g>
  </g>
</svg>