<?xml version="1.0" encoding="UTF-8"?>
<svg id="_图层_2" data-name="图层 2" xmlns="http://www.w3.org/2000/svg" viewBox="0 0 288.38 468.75">
  <defs>
    <style>
      .cls-1 {
        fill: #050101;
      }

      .cls-2 {
        fill: #f1d14f;
      }

      .cls-3 {
        fill: #0c0808;
      }

      .cls-4 {
        fill: #090504;
      }

      .cls-5 {
        fill: #0a0606;
      }

      .cls-6 {
        fill: #efd35f;
      }

      .cls-7 {
        fill: #c9c9c9;
      }

      .cls-8 {
        fill: #f9f9f9;
      }

      .cls-9 {
        fill: #0b0707;
      }

      .cls-10 {
        fill: #fefefe;
      }

      .cls-11 {
        fill: #f1d255;
      }

      .cls-12 {
        fill: #f2d664;
      }

      .cls-13 {
        fill: #edc934;
      }
    </style>
  </defs>
  <g id="_右人物" data-name="右人物">
    <g id="_右人物-2" data-name="右人物">
      <path class="cls-4" d="M288.38,57.59c-25.42-2.67-18.43,20.54-23.21,35.77-1.06,3.38-6.11,10.89-9.71,8.08-1.33-1.03-9.89-22.98-15.39-29.9-10.57-13.31-25.76-16.55-31.37-31.74,3.53-3.9,10.48,1.05,14.81.59,5.85-.63,22.16-17.2,26.4-22.55,5.08-6.4,5.85-18.62,13.73-17.79-6.67,21.51,2.54,44.8,24.73,52.07v5.48Z"/>
      <path class="cls-7" d="M129.08,466v2.74h-30.21v-2.74c3.56-7.73,26.65-7.73,30.21,0Z"/>
      <path class="cls-1" d="M98.86,466c-20.95-1.64-47.63-8.92-67.34-16.4-13.28-5.03-35.37-10.09-30.94-28.06l49.04-187.27c.21-8.27-7.81-11.7-11.81-18.45C-27.83,105.26,122.97,12.95,211.51,86.34c58.09,48.16,40.54,138.85-30.26,160.41l40.74,184.44c-23.28,20.29-61.92,32.4-92.91,34.82-8.83.69-21.38.69-30.21,0Z"/>
      <path class="cls-13" d="M227.97,46.67c.49-.71,11.03-4.72,15.08-8.29,2.73-2.4,10.84-14.81,12.33-13.68-.88,8.3,14.49,22.64,13.35,28.37-.34,1.73-13.53,18.28-14.69,23.65-6.09-4.2-8.87-11.28-13.62-16.5-2.97-3.27-15.7-8.89-12.46-13.54Z"/>
      <path class="cls-10" d="M173.33,247.05l36.89,180.71c-62.96,41-133.63,30.09-199.26,2.55,16.38-61.73,28.98-124.63,45.26-186.4,1.4-5.31,6.94-11.85,6.96-15.07.02-4.06-13.76-18.44-17.03-24.08-36.04-62.22,15.77-128.28,81.45-133.56,116.19-9.34,151.51,130.16,45.73,175.86Z"/>
      <path class="cls-9" d="M128.41,159.69c10.56,12.22,0,44.49-17.83,48.19-29.24,6.06-31.59-45.28-22.32-51.23,3.13-2.01,36.68-.98,40.16,3.04Z"/>
      <path class="cls-5" d="M181.25,131.55c-1.61,2.3-27.75,12.33-32.94,13.79-2.13,2.87,27.45,22.13,27.41,26.01,0,.52-5.64,6.23-7.22,6.52-2.88.53-38.52-26.4-39.25-28.72-2.98-9.46,35.99-24.3,43.06-25.34,5.57-.83,11.72,3.75,8.93,7.74Z"/>
      <path class="cls-3" d="M65.9,159.01c-.23,6.31-.65,6.55-5.49,2.74-1.1-1.21-13.6-1.63-7.02-11.12,2.23-3.21,18.6-6.38,23.49-8.1l-13.71-21.88c5.79-5.05,31.71,15.72,32.84,20.72,1.44,6.41-24.47,16.04-30.1,17.64Z"/>
      <path class="cls-11" d="M200.47,202.85c-5.5,1.89-8.98-9.3-10.42-12.86-1.57-3.88-4.49-6.87-3.27-11.79,8.15,4.48,13.64,15.46,13.69,24.65Z"/>
      <path class="cls-6" d="M65.9,159.01l5.47,21.93c-7.46-1.35-8.84-16.87-10.96-19.19.99-2.7,3.4-2.15,5.49-2.74Z"/>
      <path class="cls-2" d="M175.73,180.95c7.37,6.66-.67,27.66-5.49,1.39-.3-2.43,5.22-1.64,5.49-1.39Z"/>
      <path class="cls-12" d="M164.77,189.14c-7.41,2.19-7.72-7.13-8.2-13.69,5.76,2.28,9.31,7.41,8.2,13.69Z"/>
      <path class="cls-8" d="M93.36,164.48c6.65,1.02,25.41-2.61,29.02,2.57,16.14,23.21-35.64,58.66-29.02-2.57Z"/>
    </g>
  </g>
</svg>