<svg width="18" height="18" viewBox="0 0 18 18" fill="none" xmlns="http://www.w3.org/2000/svg">
<path d="M14.8174 13.6787L10.1398 9.00113L14.8174 4.32306C14.9699 4.17058 15.0537 3.96784 15.0536 3.75217C15.0534 3.53714 14.9697 3.3353 14.8178 3.18382C14.6656 3.03129 14.4636 2.94739 14.2485 2.94727C14.0326 2.94727 13.83 3.03114 13.6777 3.18343L9.00028 7.86085L4.32209 3.18343C4.1698 3.03114 3.96744 2.94727 3.75227 2.94727C3.53712 2.94727 3.33475 3.03112 3.18249 3.18339C3.03026 3.33521 2.94643 3.53714 2.94629 3.75217C2.94615 3.96784 3.03002 4.17058 3.18249 4.32305L7.86065 9.00112L3.18247 13.6788C3.03017 13.831 2.94629 14.0334 2.94629 14.2486C2.94629 14.4637 3.03018 14.6661 3.18249 14.8184C3.33475 14.9707 3.5371 15.0545 3.75225 15.0545C3.96742 15.0545 4.1698 14.9707 4.32207 14.8184L9.00021 10.1408L13.6778 14.8184C13.8301 14.9707 14.0326 15.0545 14.2481 15.0545C14.4637 15.0544 14.6655 14.9706 14.8171 14.8187C15.1315 14.5043 15.1316 13.9929 14.8174 13.6787Z" fill="#999999"/>
</svg>
