<svg width="20" height="20" viewBox="0 0 20 20" fill="none" xmlns="http://www.w3.org/2000/svg">
<g clip-path="url(#clip0_66_13648)">
<path d="M15.8287 14.658C15.972 14.7033 16.1023 14.7826 16.2084 14.8891L19.3001 17.9808C19.3895 18.0672 19.4609 18.1707 19.5099 18.285C19.5589 18.3993 19.5847 18.5223 19.5858 18.6466C19.5868 18.771 19.563 18.8944 19.5159 19.0095C19.4687 19.1246 19.3991 19.2292 19.3111 19.3171C19.2231 19.4051 19.1184 19.4746 19.0033 19.5216C18.8881 19.5687 18.7647 19.5923 18.6403 19.5912C18.5159 19.59 18.393 19.5641 18.2787 19.515C18.1644 19.4658 18.0611 19.3944 17.9747 19.3049L14.883 16.2144C14.7549 16.0866 14.6668 15.9243 14.6294 15.7473C12.8319 17.0986 10.5827 17.7055 8.34932 17.4417C6.11594 17.1778 4.07007 16.0637 2.63679 14.3307C1.20352 12.5977 0.493058 10.3791 0.653024 8.13587C0.812989 5.89266 1.83108 3.79733 3.49577 2.28524C5.16045 0.773157 7.34372 -0.039415 9.59193 0.0163648C11.8401 0.0721446 13.9804 0.991987 15.5681 2.58477C17.1557 4.17755 18.0687 6.32079 18.1172 8.56917C18.1657 10.8176 17.3461 12.9982 15.8287 14.658ZM9.37545 15.6273C11.1976 15.6273 12.9451 14.9035 14.2336 13.615C15.522 12.3266 16.2459 10.5791 16.2459 8.75692C16.2459 6.93477 15.522 5.18725 14.2336 3.89879C12.9451 2.61034 11.1976 1.88649 9.37545 1.88649C7.5533 1.88649 5.80578 2.61034 4.51733 3.89879C3.22887 5.18725 2.50503 6.93477 2.50503 8.75692C2.50503 10.5791 3.22887 12.3266 4.51733 13.615C5.80578 14.9035 7.5533 15.6273 9.37545 15.6273Z" fill="#999999"/>
</g>
<defs>
<clipPath id="clip0_66_13648">
<rect width="20" height="20" fill="white"/>
</clipPath>
</defs>
</svg>
